<svg id="visual" viewBox="0 0 900 600" width="900" height="600" xmlns="http://www.w3.org/2000/svg" xmlns:xlink="http://www.w3.org/1999/xlink" version="1.1"><rect x="0" y="0" width="900" height="600" fill="#28c7a5"></rect><g transform="translate(451.2323141633079 310.3488601775715)"><path d="M164.6 -219.6C210.9 -193 244.3 -141.6 274.2 -81.6C304 -21.5 330.3 47.2 311.8 100.4C293.2 153.6 229.8 191.3 170.3 211C110.9 230.8 55.4 232.6 -2.6 236.2C-60.7 239.9 -121.5 245.3 -177.3 224.4C-233.1 203.5 -283.9 156.1 -306.3 97.2C-328.7 38.2 -322.7 -32.3 -300.6 -96.9C-278.5 -161.4 -240.4 -219.8 -187.6 -244.4C-134.8 -268.9 -67.4 -259.4 -4.1 -253.8C59.2 -248.1 118.3 -246.2 164.6 -219.6" fill="#17846c"></path></g></svg>